<svg xmlns="http://www.w3.org/2000/svg" width="512" height="512"><path fill="purple" d="M377.91659 187.33355c-.99883 0-2.11307.89002-3.37494 2.62506-3.68042 5.09995-7.68853 9.57846-12 13.41654v4.54186a28.16 28.16 0 0 1 2.70827-.12522c3.20725 0 5.65099.70549 7.33333 2.12501 1.68256 1.41973 3.82934 5.33547 6.45846 11.74997l5.1249 12.20843-20.49984 54.50005c-1.62986 4.1536-3.05173 6.72021-4.20842 7.66656-1.1567.89387-2.97622 1.56864-5.49995 2.0416v6.62507c2.78656-.368 5.23008-.54165 7.33333-.54165 2.15552 0 5.39691.17279 9.70838.54186 4.20608-17.40331 10.1152-37.66869 17.79157-60.75008 7.88672 21.60939 13.42869 35.86219 16.58325 42.74987 3.20726 6.88768 6.91883 13.43189 11.12512 19.58336h2.45824c6.46699-3.25974 12.52992-6.03094 18.20843-8.29162v-4.41665c-3.25973-.31552-6.09237-1.757-8.45845-4.33344-2.31339-2.62891-6.37227-11.1968-12.20822-25.70816l-21.20832-53.41696c-3.15477-7.88672-6.3345-13.62218-9.54176-17.25013-3.20725-3.68021-5.8353-5.54155-7.83338-5.54155M0 188.54187v115.62495h23.33333v-50.58346h45.74998v50.58346h23.33333V188.54208H69.08331v45.49995H23.33333v-45.49995zm477.54176 36.66666c-10.6208 0-19.60853 4.18198-26.91669 12.54187-6.94038 8.04416-10.37504 17.46048-10.37504 28.29141 0 12.1455 3.6192 21.90016 10.87488 29.20832 7.25589 7.25568 16.96874 10.87509 29.16693 10.87509 12.09259 0 22.02091-4.0896 29.74976-12.29162.84139-.89387 1.25013-1.51786 1.25013-1.83338 0-.26283-.90986-2.144-2.74986-5.66656-1.84043-3.57547-2.84246-5.4366-3.00011-5.54177-.10453-.10453-.3712-.1664-.79168-.1664l-2.54165 2.08321c-6.94038 5.36298-14.5679 8.0418-22.8751 8.0418-4.83712 0-9.33546-1.56458-13.54176-4.66666-4.41642-3.25973-6.98304-7.2064-7.66656-11.8336 30.2848-2.26069 46.57259-3.78368 48.83328-4.62485 3.36491-1.31456 5.04171-3.94262 5.04171-7.8336 0-10.09494-3.24139-18.66283-9.70837-25.70816-6.62464-7.25568-14.8655-10.8751-24.74987-10.8751m-148.12501.1664c-.63104 0-.95851 1.55371-.95851 4.70827 0 .73621.0619 1.89205.1664 3.41675.10453 1.47221.1664 2.5248.1664 3.20853 0 .94613-.2048 1.41653-.62485 1.41653-.368 0-.992-.52096-1.83318-1.62496-5.10016-6.67733-11.99146-10.0416-20.66666-10.0416-9.83211 0-17.80694 3.7423-23.9584 11.20832-5.78347 6.99264-8.66667 15.46859-8.66667 25.45814 0 9.8321 3.00608 18.14527 8.99989 24.87509 6.25686 6.99285 14.23147 10.45824 23.9584 10.45824 8.99072 0 16.41387-3.52704 22.25003-10.62485.2112 3.83807.29163 6.31253.29163 7.41653 0 4.99499-1.97334 8.78784-5.91659 11.41674-3.4176 2.31339-7.71157 3.45815-12.91669 3.45815-7.9392 0-15.86347-2.22807-23.74998-6.74988-.42069-.26282-.73728-.41663-1.0001-.41663-.57835 0-.96726.43946-1.12491 1.33332-1.57739 8.3599-2.37504 12.24512-2.37504 11.66678 0 .52565.59328 1.18037 1.74997 1.91659 7.36086 4.5216 17.02315 6.79168 28.9583 6.79168 12.35584 0 21.33269-3.14902 26.95829-9.45834 5.3632-5.94134 8.04181-15.19488 8.04181-27.70838 0-6.30933.0619-15.75637.1664-28.37504.10454-12.67115.1664-22.19051.1664-28.49984 0-1.10421-.38869-1.77899-1.1249-2.0416-.47318-.2112-3.264-.76203-8.41664-1.70837-5.15264-.99904-8.016-1.50016-8.54187-1.50016M146.12395 226c-10.88363 0-20.0032 3.94667-27.41675 11.83339-7.20299 7.72885-10.83307 17.0944-10.83307 28.0832s3.63008 20.31275 10.83307 28.04182c7.36085 7.99168 16.48064 12 27.41675 12 10.88362 0 20.01408-4.03904 27.37493-12.0832 7.2032-7.78176 10.79168-17.13643 10.79168-28.12524 0-10.9361-3.6192-20.24021-10.87488-27.91679-7.36-7.8863-16.45995-11.83296-27.29088-11.83296m82.58347 0c-10.88363 0-20.04502 3.94666-27.45856 11.83338-7.20299 7.72886-10.79168 17.0944-10.79168 28.0832s3.58869 20.31275 10.79168 28.04181c7.36085 7.99169 16.52224 12 27.45834 12 10.88363 0 20.0143-4.03904 27.37494-12.08319 7.2032-7.78177 10.79189-17.13643 10.79189-28.12523 0-10.93611-3.61941-20.24021-10.87509-27.9168-7.36086-7.88651-16.4608-11.83317-27.29174-11.83317m247.70816 14.33344c4.31147 0 8.20758 1.67658 11.62496 5.04149 3.47008 3.36512 5.20832 7.26123 5.20832 11.62496 0 .63104-1.53386 1.16266-4.58325 1.58336-10.83093 1.57739-20.13525 2.33344-27.9168 2.33344-1.89269 0-2.83307-.52096-2.83307-1.62496 0-4.83712 1.85024-9.23435 5.58315-13.12512 3.7856-3.89077 8.07957-5.83317 12.91669-5.83317m-166.54165 1.1249c5.73099 0 10.35243 2.23915 13.8752 6.70827 3.20704 4.10112 4.79147 9.06965 4.79147 14.95829 0 5.73099-1.64587 10.6799-4.9583 14.83349-3.57546 4.52161-8.13504 6.79169-13.70837 6.79169-5.6256 0-10.2272-2.27008-13.74997-6.79169-3.25974-4.15359-4.8751-9.1025-4.8751-14.83349 0-5.83595 1.62624-10.77376 4.8335-14.87488 3.52256-4.5216 8.11306-6.79168 13.79157-6.79168m-163.74997.87488c6.30933 0 11.52384 2.3823 15.62496 7.16672 3.94325 4.52182 5.9168 10.00235 5.9168 16.41664 0 6.30933-1.97334 11.74827-5.9168 16.37505-4.1536 4.8896-9.36832 7.33333-15.62496 7.33333-6.20416 0-11.37707-2.44352-15.58336-7.33333-3.99574-4.62678-6-10.06571-6-16.37505 0-6.41429 1.97333-11.92576 5.91658-16.49984 4.1536-4.73194 9.35744-7.0833 15.66678-7.0833m82.58346 0c6.30912 0 11.52384 2.38229 15.62475 7.16672 3.94347 4.52181 5.9168 10.00234 5.9168 16.41664 0 6.30933-1.97333 11.74826-5.9168 16.37504-4.1536 4.8896-9.36811 7.33333-15.62496 7.33333-6.20416 0-11.41867-2.44352-15.62496-7.33333-3.99573-4.62678-6-10.06571-6-16.37504 0-6.4143 1.97333-11.92576 5.9168-16.49984 4.1536-4.73195 9.39883-7.08331 15.70816-7.08331"/></svg>
